<svg width="600" height="60" viewBox="0 0 600 60" fill="none" xmlns="http://www.w3.org/2000/svg">
<rect width="600" height="60" fill="white"/>
<circle cx="30" cy="30" r="30" fill="#FFCF87"/>
<circle cx="530" cy="30" r="30" fill="#D0B2F5"/>
<g clip-path="url(#clip0_2156_1034)">
<path d="M36.175 18.625C33.4417 18.625 31.0903 20.848 30.0016 23.1701C28.9112 20.848 26.5598 18.625 23.8266 18.625C20.0598 18.625 17.0016 21.6832 17.0016 25.45C17.0016 33.1135 24.7333 35.1236 30.0016 42.701C34.9822 35.1707 43.0016 32.8697 43.0016 25.45C43.0016 21.6816 39.9433 18.625 36.1766 18.625H36.175Z" fill="#ECA234"/>
</g>
<circle cx="130" cy="30" r="30" fill="#FFAFD6"/>
<g clip-path="url(#clip1_2156_1034)">
<path d="M142.997 18.3928C142.997 17.2374 142.755 16.1389 142.321 15.1428C141.468 17.0944 139.872 18.6447 137.891 19.4377C135.702 17.7623 132.967 16.7678 129.998 16.7678C127.03 16.7678 124.295 17.7639 122.106 19.4377C120.123 18.6447 118.527 17.0928 117.676 15.1428C117.241 16.1389 117 17.2374 117 18.3928C117 20.2616 117.631 21.9808 118.69 23.3539C117.614 25.2471 117 27.4359 117 29.7678C117 36.9471 122.821 42.7678 130 42.7678C137.179 42.7678 143 36.9471 143 29.7678C143 27.4343 142.386 25.2454 141.31 23.3539C142.37 21.9808 143 20.2616 143 18.3928H142.997ZM131.623 26.4301C131.675 25.2259 132.771 24.4248 133.695 23.9633C134.578 23.5229 135.45 23.3019 135.486 23.2922C135.922 23.1833 136.362 23.4482 136.471 23.8837C136.58 24.3192 136.315 24.7596 135.879 24.8684C135.432 24.9822 134.901 25.1756 134.433 25.4112C134.703 25.7021 134.869 26.0904 134.869 26.5178C134.869 27.4148 134.141 28.1428 133.244 28.1428C132.347 28.1428 131.619 27.4148 131.619 26.5178C131.619 26.4886 131.62 26.4593 131.622 26.4301H131.623ZM123.521 23.8837C123.63 23.4482 124.07 23.1833 124.506 23.2922C124.543 23.3019 125.414 23.5213 126.297 23.9633C127.22 24.4248 128.317 25.2243 128.369 26.4301C128.37 26.4593 128.372 26.4886 128.372 26.5178C128.372 27.4148 127.644 28.1428 126.747 28.1428C125.85 28.1428 125.122 27.4148 125.122 26.5178C125.122 26.0904 125.288 25.7004 125.557 25.4112C125.089 25.1772 124.559 24.9822 124.111 24.8684C123.675 24.7596 123.411 24.3192 123.52 23.8837H123.521ZM129.997 37.8928C127.039 37.8928 124.451 36.3117 123.029 33.9489L125.119 32.6944C126.113 34.3487 127.925 35.4553 129.997 35.4553C132.069 35.4553 133.879 34.3487 134.875 32.6944L136.965 33.9489C135.545 36.3117 132.956 37.8928 129.997 37.8928V37.8928Z" fill="#CF6498"/>
</g>
<circle cx="230" cy="30" r="30" fill="#BFFFA1"/>
<g clip-path="url(#clip2_2156_1034)">
<path d="M230 38.125C230.897 38.125 231.625 38.853 231.625 39.75V41.375C231.625 42.272 230.897 43 230 43C229.103 43 228.375 42.272 228.375 41.375V39.75C228.375 38.853 229.103 38.125 230 38.125ZM230 21.875C229.103 21.875 228.375 21.147 228.375 20.25V18.625C228.375 17.728 229.103 17 230 17C230.897 17 231.625 17.728 231.625 18.625V20.25C231.625 21.147 230.897 21.875 230 21.875ZM241.375 28.375C242.272 28.375 243 29.103 243 30C243 30.897 242.272 31.625 241.375 31.625H239.75C238.853 31.625 238.125 30.897 238.125 30C238.125 29.103 238.853 28.375 239.75 28.375H241.375ZM221.875 30C221.875 30.897 221.147 31.625 220.25 31.625H218.625C217.728 31.625 217 30.897 217 30C217 29.103 217.728 28.375 218.625 28.375H220.25C221.147 28.375 221.875 29.103 221.875 30ZM238.044 35.746L239.193 36.8949C239.826 37.5286 239.826 38.5589 239.193 39.1926C238.559 39.8264 237.529 39.8264 236.895 39.1926L235.746 38.0437C235.112 37.41 235.112 36.3798 235.746 35.746C236.38 35.1123 237.41 35.1123 238.044 35.746ZM221.956 24.254L220.807 23.1051C220.172 22.4697 220.172 21.4411 220.807 20.8074C221.443 20.1736 222.471 20.172 223.105 20.8074L224.254 21.9562C224.889 22.5916 224.889 23.6203 224.254 24.254C223.619 24.8878 222.59 24.8894 221.956 24.254ZM238.044 24.254C237.41 24.8894 236.38 24.8894 235.746 24.254C235.112 23.6186 235.112 22.59 235.746 21.9562L236.895 20.8074C237.529 20.172 238.559 20.172 239.193 20.8074C239.826 21.4427 239.826 22.4714 239.193 23.1051L238.044 24.254ZM221.956 35.746C222.59 35.1123 223.62 35.1123 224.254 35.746C224.888 36.3798 224.889 37.41 224.254 38.0437L223.105 39.1926C222.47 39.8264 221.441 39.8264 220.807 39.1926C220.174 38.5589 220.172 37.5286 220.807 36.8949L221.956 35.746Z" fill="#79B65C"/>
<path d="M230 23.5C226.41 23.5 223.5 26.4104 223.5 30C223.5 33.5896 226.41 36.5 230 36.5C233.59 36.5 236.5 33.5896 236.5 30C236.5 26.4104 233.59 23.5 230 23.5ZM230 34.0625C227.756 34.0625 225.938 32.2441 225.938 30C225.938 27.7559 227.756 25.9375 230 25.9375C232.244 25.9375 234.062 27.7559 234.062 30C234.062 32.2441 232.244 34.0625 230 34.0625Z" fill="#79B65C"/>
</g>
<circle cx="330" cy="30" r="30" fill="#B2C5F5"/>
<g clip-path="url(#clip3_2156_1034)">
<path d="M330 17.3217C322.821 17.3217 317 23.1425 317 30.3217C317 36.0661 320.725 40.9379 325.89 42.6571C326.54 42.7774 326.779 42.3744 326.779 42.0315C326.779 41.7211 326.766 40.6974 326.761 39.6119C323.144 40.3984 322.382 38.0779 322.382 38.0779C321.791 36.5747 320.939 36.175 320.939 36.175C319.759 35.3674 321.028 35.3852 321.028 35.3852C322.333 35.4762 323.021 36.7242 323.021 36.7242C324.181 38.7116 326.063 38.1364 326.804 37.8049C326.921 36.9647 327.257 36.3911 327.629 36.0661C324.741 35.7379 321.706 34.6231 321.706 29.6409C321.706 28.2222 322.215 27.062 323.045 26.152C322.91 25.8237 322.465 24.5026 323.17 22.7119C323.17 22.7119 324.262 22.3625 326.747 24.0444C327.784 23.7567 328.895 23.6121 330 23.6072C331.105 23.6121 332.218 23.7567 333.256 24.0444C335.738 22.3625 336.828 22.7119 336.828 22.7119C337.535 24.5026 337.092 25.8254 336.957 26.152C337.79 27.062 338.294 28.2222 338.294 29.6409C338.294 34.6345 335.252 35.733 332.358 36.0547C332.824 36.4577 333.24 37.2491 333.24 38.4614C333.24 40.2001 333.226 41.6009 333.226 42.0282C333.226 42.3744 333.46 42.779 334.119 42.6522C339.282 40.9314 343.002 36.0596 343.002 30.3185C343.002 23.1392 337.181 17.3185 330.002 17.3185L330 17.3217Z" fill="#6079B7"/>
</g>
<circle cx="430" cy="30" r="30" fill="#EFB1B1"/>
<path d="M436.589 25.125C437.049 24.7983 437.491 24.4343 437.896 24.0297C438.744 23.1815 439.311 22.1382 439.493 21.0917C439.693 19.9445 439.401 18.8785 438.691 18.17C438.125 17.6045 437.358 17.3038 436.472 17.3038C435.213 17.3038 433.884 17.9083 432.829 18.963C431.141 20.6513 430.158 22.98 429.628 24.644C429.236 22.9735 428.455 20.718 426.935 19.1986C426.121 18.3845 425.08 17.9652 424.095 17.9652C423.29 17.9652 422.527 18.2447 421.955 18.8151C420.686 20.0842 420.858 22.3137 422.338 23.7941C422.866 24.3222 423.484 24.761 424.134 25.125H418.623V31.625H420.248V43H439.748V31.625H441.373V25.125H436.588H436.589ZM434.121 20.2548C434.825 19.5512 435.704 19.1303 436.471 19.1303C436.742 19.1303 437.124 19.1872 437.397 19.4602C438.058 20.1216 437.686 21.6523 436.602 22.7362C435.486 23.8526 433.986 24.6196 432.681 25.125H431.394C431.866 23.6641 432.715 21.6605 434.121 20.2548V20.2548ZM422.939 21.0852C422.922 20.8528 422.938 20.419 423.25 20.1086C423.51 19.8486 423.854 19.7933 424.096 19.7933C424.636 19.7933 425.2 20.0485 425.643 20.4905C426.503 21.3501 427.212 22.7183 427.691 24.449C427.704 24.4961 427.717 24.5416 427.728 24.5887C427.683 24.5757 427.636 24.5643 427.589 24.5513C425.86 24.072 424.491 23.3635 423.63 22.5038C423.229 22.1025 422.975 21.5857 422.938 21.0868L422.939 21.0852ZM428.375 41.375H421.875V30.8125H428.375V41.375ZM428.375 30H420.25V26.75H428.375V30ZM438.125 41.375H431.625V30.8125H438.125V41.375ZM439.75 30H431.625V26.75H439.75V30Z" fill="#C46060"/>
<path d="M541.495 21.5402C539.111 18.7615 535.574 17 531.625 17C524.446 17 518.625 22.8207 518.625 30C518.625 37.1793 524.446 43 531.625 43C535.574 43 539.111 41.2385 541.495 38.4598L533.25 30L541.495 21.5402V21.5402ZM534.875 20.0615C535.876 20.0615 536.688 20.8724 536.688 21.875C536.688 22.8776 535.878 23.6885 534.875 23.6885C533.872 23.6885 533.061 22.8776 533.061 21.875C533.061 20.874 533.872 20.0615 534.875 20.0615V20.0615Z" fill="#8959C4"/>
<defs>
<clipPath id="clip0_2156_1034">
<rect width="26" height="26" fill="white" transform="translate(17 17)"/>
</clipPath>
<clipPath id="clip1_2156_1034">
<rect width="26" height="26" fill="white" transform="translate(117 17)"/>
</clipPath>
<clipPath id="clip2_2156_1034">
<rect width="26" height="26" fill="white" transform="translate(217 17)"/>
</clipPath>
<clipPath id="clip3_2156_1034">
<rect width="26" height="26" fill="white" transform="translate(317 17)"/>
</clipPath>
</defs>
</svg>
